<?xml version="1.0" standalone="no"?>
<!DOCTYPE svg PUBLIC "-//W3C//DTD SVG 20010904//EN"
 "http://www.w3.org/TR/2001/REC-SVG-20010904/DTD/svg10.dtd">
<svg version="1.0" xmlns="http://www.w3.org/2000/svg"
 width="171.000000pt" height="171.000000pt" viewBox="0 0 171.000000 171.000000"
 preserveAspectRatio="xMidYMid meet">
<metadata>
Created by potrace 1.10, written by Peter Selinger 2001-2011
</metadata>
<g transform="translate(0.000000,171.000000) scale(0.050000,-0.050000)"
fill="#b51cfd" stroke="none">
<path d="M1197 3402 c35 -22 10 -33 -72 -32 -67 1 -95 -54 -40 -77 14 -6 -4
-5 -40 1 -48 8 -68 3 -77 -22 -7 -17 -25 -32 -41 -32 -58 0 -143 -60 -155
-109 -8 -32 -31 -55 -63 -63 -27 -7 -59 -30 -70 -50 -11 -21 -37 -38 -58 -38
-20 0 -42 -14 -49 -31 -9 -24 -29 -28 -87 -19 -67 11 -71 9 -40 -16 19 -16 35
-39 35 -51 0 -31 -65 -29 -99 2 -21 20 -24 15 -16 -29 5 -30 3 -51 -5 -46 -12
7 -40 -37 -114 -180 -11 -22 -35 -68 -53 -103 -18 -35 -33 -81 -33 -102 0 -56
-22 -69 -52 -30 -35 46 -40 -115 -6 -179 17 -31 16 -45 -2 -56 -17 -10 -18
-19 -3 -28 12 -7 16 -26 11 -41 -6 -15 0 -49 14 -74 13 -25 23 -75 22 -111 -2
-42 7 -66 23 -66 44 0 29 -63 -20 -85 -34 -15 -54 -14 -76 5 -44 36 -46 -564
-2 -652 16 -32 38 -83 49 -113 12 -30 35 -55 52 -55 16 0 30 -13 30 -30 0 -16
-10 -30 -21 -30 -12 0 -8 -14 8 -30 17 -17 36 -48 43 -70 7 -22 21 -40 31 -40
11 0 19 -11 19 -25 0 -14 32 -50 70 -81 39 -31 66 -65 59 -76 -7 -10 -1 -17
13 -13 13 3 46 -26 72 -64 46 -68 154 -131 187 -111 9 6 22 2 29 -10 7 -11 3
-20 -9 -20 -11 0 -21 -10 -21 -21 0 -13 17 -16 41 -9 30 10 54 -1 85 -36 24
-27 73 -56 108 -63 50 -11 66 -27 77 -74 10 -46 20 -57 46 -46 18 8 60 18 93
21 57 7 57 6 10 -10 -42 -15 -25 -32 24 -25 8 2 9 -11 3 -27 -8 -21 2 -30 32
-30 24 0 39 8 33 17 -6 10 67 14 163 10 704 -30 766 -31 799 -4 25 21 34 22
41 2 12 -35 45 -31 45 5 0 29 23 39 77 31 37 -5 125 80 109 105 -8 13 14 16
61 8 63 -10 73 -6 73 28 0 22 14 44 30 51 17 6 30 23 30 37 0 23 39 43 145 77
19 7 35 26 35 42 0 18 17 31 40 31 22 0 40 11 40 25 0 14 20 35 45 46 25 11
43 31 40 45 -3 13 4 24 15 24 11 0 20 13 20 28 0 46 57 54 80 11 28 -51 60
-50 60 1 0 22 -13 40 -30 40 -32 0 -37 18 -18 68 7 18 20 27 29 21 25 -15 61
63 47 105 -10 29 -8 31 9 7 26 -37 42 -22 55 50 5 30 20 73 31 95 41 76 47
367 9 405 -49 49 -20 189 39 189 16 0 30 16 31 35 1 23 7 18 18 -15 16 -49 16
-49 18 10 2 46 7 53 22 30 27 -42 26 351 -1 401 -15 29 -14 39 5 39 16 0 18 6
6 15 -26 19 -27 171 -1 189 11 8 13 21 4 30 -9 9 -31 -2 -50 -24 -31 -39 -103
-46 -103 -11 0 19 62 49 88 43 23 -5 -44 99 -91 140 -21 18 -37 43 -37 55 0
13 -8 23 -19 23 -10 0 -13 50 -7 115 6 63 4 108 -4 100 -9 -8 -15 -42 -14 -75
2 -82 -50 -79 -86 5 -15 36 -46 76 -69 90 -49 30 -56 75 -8 57 28 -11 29 -8 7
18 -18 22 -33 25 -47 11 -33 -33 -61 -25 -33 9 19 23 19 30 1 30 -35 0 -86 56
-71 80 7 12 -2 14 -22 6 -26 -9 -32 -5 -23 17 14 39 -48 78 -103 63 -32 -8
-40 -3 -31 19 9 23 0 28 -40 20 -40 -8 -51 -2 -51 29 0 57 -39 88 -82 65 -23
-12 -40 -12 -48 1 -7 11 2 20 20 20 54 0 15 35 -102 90 -90 43 -128 50 -195
39 -84 -13 -87 17 -3 37 22 5 -198 10 -490 11 -303 2 -518 -5 -503 -15z m911
-132 c630 -167 1158 -799 1182 -1416 3 -86 11 -162 17 -167 5 -6 5 -24 -1 -39
-10 -28 -89 24 -230 153 -314 286 -768 217 -1014 -154 -276 -417 61 -919 459
-682 213 127 246 368 70 501 -121 90 -287 -123 -199 -256 78 -119 -82 -128
-194 -10 -298 313 176 711 612 513 649 -294 333 -1205 -450 -1294 l-130 -14
165 2 c99 2 165 -5 164 -17 -2 -38 -162 -149 -235 -162 -41 -8 -78 -20 -84
-28 -37 -51 -392 -105 -627 -94 -369 16 -582 89 -833 283 -71 55 -143 110
-159 121 -64 44 -301 299 -301 324 0 14 -8 26 -17 26 -50 0 -216 453 -235 643
-5 56 -10 107 -11 114 -12 96 59 90 163 -12 241 -239 615 -328 870 -208 55 26
107 60 116 75 9 15 26 28 38 28 39 0 148 128 206 241 215 419 -204 920 -596
711 -170 -91 -231 -264 -149 -427 103 -206 376 -227 375 -29 -1 130 -24 142
-140 78 l-101 -57 -39 47 c-47 56 -50 76 -10 76 17 0 30 -13 30 -30 0 -35 31
-40 51 -8 7 12 30 17 51 12 21 -6 38 -1 38 11 0 89 168 127 240 55 22 -22 47
-40 55 -40 26 0 65 -106 65 -178 0 -327 -439 -546 -751 -374 -88 48 -249 178
-249 201 0 5 -22 33 -49 62 -56 60 -111 229 -111 339 0 80 60 270 85 270 8 0
15 12 15 28 0 15 14 38 30 52 17 14 30 37 30 51 0 87 246 279 435 340 93 30
141 69 85 69 -96 0 54 125 235 196 330 130 719 158 1033 74z m-1019 -921 c21
-16 57 -29 80 -29 34 -1 36 -4 11 -20 -16 -11 -60 -20 -96 -20 -38 0 -84 -17
-109 -40 -23 -22 -35 -40 -26 -40 9 0 5 -13 -9 -30 -45 -54 -95 -36 -103 37
-7 59 -3 66 36 62 26 -3 49 8 57 27 11 29 15 29 33 3 17 -23 18 -21 8 9 -21
67 51 92 118 41z m1434 -1243 c21 -26 21 -30 1 -18 -16 10 -42 2 -66 -20 -29
-26 -45 -29 -61 -13 -17 17 -9 26 30 36 29 7 53 21 53 31 0 27 12 22 43 -16z"/>
<path d="M1130 3001 c148 -45 160 -47 140 -25 -11 12 -60 27 -110 33 -75 8
-80 7 -30 -8z"/>
<path d="M929 2931 c-35 -27 -36 -30 -4 -30 19 -1 35 8 35 19 0 11 19 13 45 4
25 -8 95 -10 155 -4 88 8 100 13 60 25 -85 25 -250 17 -291 -14z"/>
<path d="M1260 2890 c-17 -20 -18 -30 -2 -30 12 0 22 10 22 21 0 13 22 9 55
-9 147 -80 185 -94 172 -62 -13 35 15 40 46 9 28 -28 50 23 27 61 -13 21 -23
20 -50 -7 -40 -40 -39 -40 -106 -6 -97 50 -137 55 -164 23z"/>
<path d="M1612 2775 c8 -14 32 -45 54 -70 23 -25 31 -45 18 -45 -12 0 -45 25
-73 55 -28 30 -51 47 -51 37 0 -9 41 -56 90 -103 50 -47 90 -94 90 -103 0 -9
27 -34 61 -56 58 -39 60 -44 47 -148 -10 -85 -8 -104 12 -92 20 12 23 2 12
-42 -7 -32 -14 -71 -14 -88 -1 -85 -44 -300 -60 -300 -10 0 -18 -18 -18 -40 0
-22 -8 -40 -18 -40 -19 0 -143 -249 -179 -361 -27 -86 -31 -345 -5 -394 10
-19 33 -78 52 -130 18 -52 42 -95 52 -95 10 0 18 -19 18 -43 0 -42 1 -42 40
-7 36 33 40 33 40 3 0 -18 -9 -33 -20 -33 -99 0 72 -139 175 -142 30 0 44 -6
30 -11 -35 -14 -31 -47 4 -47 18 0 25 -12 18 -30 -15 -40 35 -37 163 9 l100
35 -165 36 c-91 20 -165 42 -165 50 0 8 -27 20 -60 27 -56 11 -89 73 -39 73
11 0 5 22 -15 49 -20 28 -47 46 -61 41 -15 -5 -25 8 -25 31 0 65 -1 67 -45
114 -52 56 -66 413 -18 443 15 9 28 49 29 88 1 40 10 66 21 60 11 -7 13 9 6
41 -9 33 -6 53 8 53 12 0 19 11 14 25 -9 27 67 95 105 95 14 0 19 14 12 33 -7
17 -4 42 6 55 112 137 108 430 -10 687 -26 58 -48 120 -48 137 0 17 -9 25 -19
18 -11 -6 -44 25 -73 69 -47 72 -133 121 -96 56z"/>
<path d="M1440 1099 c0 -36 8 -56 20 -49 11 7 20 34 20 61 0 27 -9 49 -20 49
-11 0 -20 -28 -20 -61z"/>
<path d="M2733 1108 c-8 -24 -32 -59 -54 -78 -46 -43 -51 -73 -9 -57 17 6 30
23 30 38 0 15 14 35 32 45 18 10 28 35 24 56 -8 35 -9 35 -23 -4z"/>
</g>
</svg>
